FFmpeg version SVN-r25716, Copyright (c) 2000-2010 the FFmpeg developers  built on Nov 10 2010 12:23:18 with gcc 4.1.2 20080704 (Red Hat 4.1.2-48)  configuration: --enable-libmp3lame --enable-shared --disable-mmx --arch=x86_64  libavutil     50.33. 0 / 50.33. 0  libavcore      0.12. 1 /  0.12. 1  libavcodec    52.94. 4 / 52.94. 4  libavformat   52.84. 0 / 52.84. 0  libavdevice   52. 2. 2 / 52. 2. 2  libavfilter    1.59. 0 /  1.59. 0  libswscale     0.12. 0 /  0.12. 0Seems stream 0 codec frame rate differs from container frame rate: 5000.00 (5000/1) -> 25.00 (25/1)Input #0, mov,mp4,m4a,3gp,3g2,mj2, from '/RAID10/data/converted_video_files/25537.mov':  Metadata:    major_brand     : qt      minor_version   : 537199360    compatible_brands: qt    Duration: 00:00:08.28, start: 0.000000, bitrate: 670 kb/s    Stream #0.0(eng): Video: h264, yuv420p, 784x576, 667 kb/s, 25 fps, 25 tbr, 2500 tbn, 5k tbc[buffer @ 0x8f98e60] w:784 h:576 pixfmt:yuv420pOutput #0, flv, to '/RAID10/data/converted_video_files/25537.flv':  Metadata:    encoder         : Lavf52.84.0    Stream #0.0(eng): Video: flv, yuv420p, 784x576, q=2-31, 600 kb/s, 1k tbn, 24 tbcStream mapping:  Stream #0.0 -> #0.0Press [q] to stop encodingframe=   40 fps=  0 q=4.0 size=     255kB time=1.67 bitrate=1251.6kbits/s dup=0 drop=1    frame=   85 fps= 82 q=4.1 size=     441kB time=3.54 bitrate=1020.3kbits/s dup=0 drop=3    frame=  130 fps= 84 q=6.5 size=     593kB time=5.42 bitrate= 897.5kbits/s dup=0 drop=5    frame=  181 fps= 89 q=4.9 size=     763kB time=7.54 bitrate= 828.5kbits/s dup=0 drop=7    frame=  199 fps= 87 q=6.8 Lsize=     814kB time=8.29 bitrate= 804.4kbits/s dup=0 drop=8    video:811kB audio:0kB global headers:0kB muxing overhead 0.408733%